<svg id="logo-group_1_" xmlns="http://www.w3.org/2000/svg" viewBox="0 0 186.2 46.593">
  <defs>
    <style>
      .cls-1 {
        fill: rgba(255,160,0,0.72);
      }
    </style>
  </defs>
  <g id="title_1_" transform="translate(0 0)">
    <path id="path13_1_" class="cls-1" d="M15.711,37.868a14.148,14.148,0,0,0-5.294-.968,13.766,13.766,0,0,0-4.554.768A8.507,8.507,0,0,0,2.391,40a5.467,5.467,0,0,0-1.338,3.785c0,3.7,2.932,6.119,8.766,7.2A14.356,14.356,0,0,1,14.6,52.583a2.854,2.854,0,0,1,1.423,2.334,2.618,2.618,0,0,1-1.452,2.334,7.581,7.581,0,0,1-4.013.854,9.836,9.836,0,0,1-3.7-.683,6.377,6.377,0,0,1-2.59-1.679,2.487,2.487,0,0,0-1.736-.825,2.765,2.765,0,0,0-1.594.626A2.118,2.118,0,0,0,0,57.336a1.814,1.814,0,0,0,.6,1.423,10.6,10.6,0,0,0,4.3,2.5,17.794,17.794,0,0,0,5.835.968,12.935,12.935,0,0,0,5.294-.968,7.884,7.884,0,0,0,3.387-2.7,6.92,6.92,0,0,0,1.138-3.842,5.9,5.9,0,0,0-2.106-4.611c-1.366-1.167-3.757-2.078-7.03-2.761a17.785,17.785,0,0,1-3.7-1,4.225,4.225,0,0,1-1.736-1.138,2.438,2.438,0,0,1-.455-1.565,2.088,2.088,0,0,1,1.338-1.964,7.747,7.747,0,0,1,3.472-.74,9.908,9.908,0,0,1,3.1.455,7.21,7.21,0,0,1,2.419,1.452,2.964,2.964,0,0,0,2.135.854,1.95,1.95,0,0,0,1.281-.37,1.736,1.736,0,0,0,.768-1.423,2.527,2.527,0,0,0-.6-1.452,9.819,9.819,0,0,0-3.729-2.59Z" transform="translate(0 -26.397)"/>
    <path id="path15_1_" class="cls-1" d="M122.511,50.647a1.994,1.994,0,0,0,.6-1.452,14.583,14.583,0,0,0-1.366-6.4,10.688,10.688,0,0,0-3.928-4.326,12,12,0,0,0-6.062-1.565,12.412,12.412,0,0,0-6.4,1.651,11.369,11.369,0,0,0-4.383,4.525A13.3,13.3,0,0,0,99.4,49.594a12.611,12.611,0,0,0,1.651,6.518,11.72,11.72,0,0,0,4.668,4.525,13.7,13.7,0,0,0,6.717,1.594,13.311,13.311,0,0,0,4.383-.768,12.412,12.412,0,0,0,3.871-2.021,1.759,1.759,0,0,0,.74-1.366,2.148,2.148,0,0,0-.825-1.565,2.191,2.191,0,0,0-1.366-.455,2.306,2.306,0,0,0-1.508.512,7.19,7.19,0,0,1-2.476,1.224,7.893,7.893,0,0,1-2.818.512,8.826,8.826,0,0,1-5.892-1.964,7.846,7.846,0,0,1-2.875-5.152H121a2.273,2.273,0,0,0,1.508-.541Zm-16.2-8a7.989,7.989,0,0,1,5.436-1.822,6.847,6.847,0,0,1,4.9,1.822,8.22,8.22,0,0,1,2.277,4.9h-15.2A8.386,8.386,0,0,1,106.316,42.649Z" transform="translate(-71.109 -26.397)"/>
    <path id="path17_1_" class="cls-1" d="M230.211,50.647a1.994,1.994,0,0,0,.6-1.452,14.583,14.583,0,0,0-1.366-6.4,10.688,10.688,0,0,0-3.928-4.326,12,12,0,0,0-6.062-1.565,12.412,12.412,0,0,0-6.4,1.651,11.369,11.369,0,0,0-4.383,4.525,13.3,13.3,0,0,0-1.565,6.518,12.611,12.611,0,0,0,1.651,6.518,11.72,11.72,0,0,0,4.668,4.525,13.7,13.7,0,0,0,6.717,1.594,13.311,13.311,0,0,0,4.383-.768,12.412,12.412,0,0,0,3.871-2.021,1.759,1.759,0,0,0,.74-1.366,2.148,2.148,0,0,0-.825-1.565,2.191,2.191,0,0,0-1.366-.455,2.306,2.306,0,0,0-1.508.512,7.19,7.19,0,0,1-2.476,1.224,7.893,7.893,0,0,1-2.818.512,8.826,8.826,0,0,1-5.892-1.964,7.846,7.846,0,0,1-2.875-5.152H228.7a2.328,2.328,0,0,0,1.508-.541Zm-16.223-8a7.989,7.989,0,0,1,5.436-1.822,6.847,6.847,0,0,1,4.9,1.822,8.22,8.22,0,0,1,2.277,4.9H211.4A8.386,8.386,0,0,1,213.988,42.649Z" transform="translate(-148.155 -26.397)"/>
    <path id="path19_1_" class="cls-1" d="M341.654,33.8a1.939,1.939,0,0,0-.512-1.366L332.29,21.561l8.425-7.486a1.973,1.973,0,0,0,.74-1.565,2.133,2.133,0,0,0-.6-1.423,2.01,2.01,0,0,0-2.989-.142l-11.1,9.9V2.32a2.236,2.236,0,0,0-.626-1.594A2.236,2.236,0,0,0,324.548.1,2.325,2.325,0,0,0,322.9.726a2.1,2.1,0,0,0-.6,1.594V33.486a2.191,2.191,0,0,0,.6,1.651,2.261,2.261,0,0,0,1.651.6,2.1,2.1,0,0,0,1.594-.6,2.278,2.278,0,0,0,.626-1.651V26.513l2.277-2.021,8.681,10.73a1.973,1.973,0,0,0,1.651.825,2.248,2.248,0,0,0,1.452-.541A2.112,2.112,0,0,0,341.654,33.8Z" transform="translate(-230.566 -0.072)"/>
    <path id="path21_1_" class="cls-1" d="M434.583,37.868a14.148,14.148,0,0,0-5.294-.968,13.766,13.766,0,0,0-4.554.768A8.507,8.507,0,0,0,421.262,40a5.6,5.6,0,0,0-1.338,3.785c0,3.7,2.932,6.119,8.766,7.2a14.356,14.356,0,0,1,4.782,1.594,2.854,2.854,0,0,1,1.423,2.334,2.618,2.618,0,0,1-1.452,2.334,7.581,7.581,0,0,1-4.013.854,9.836,9.836,0,0,1-3.7-.683,6.377,6.377,0,0,1-2.59-1.679,2.487,2.487,0,0,0-1.736-.825,2.765,2.765,0,0,0-1.594.626,2.091,2.091,0,0,0-.911,1.793,1.814,1.814,0,0,0,.6,1.423,10.6,10.6,0,0,0,4.3,2.5,17.794,17.794,0,0,0,5.835.968,12.935,12.935,0,0,0,5.294-.968,7.885,7.885,0,0,0,3.387-2.7,6.92,6.92,0,0,0,1.138-3.842,5.9,5.9,0,0,0-2.106-4.611c-1.366-1.2-3.757-2.106-7.03-2.789a17.785,17.785,0,0,1-3.7-1,4.225,4.225,0,0,1-1.736-1.138,2.438,2.438,0,0,1-.455-1.565,2.088,2.088,0,0,1,1.338-1.964,7.747,7.747,0,0,1,3.472-.74,9.908,9.908,0,0,1,3.1.455,7.21,7.21,0,0,1,2.419,1.452,2.964,2.964,0,0,0,2.135.854,1.95,1.95,0,0,0,1.281-.37,1.736,1.736,0,0,0,.768-1.423,2.526,2.526,0,0,0-.6-1.452,9.979,9.979,0,0,0-3.757-2.562Z" transform="translate(-299.672 -26.397)"/>
    <path id="path23_1_" class="cls-1" d="M520.326.626a2.186,2.186,0,0,0-.626,1.651V27.21a10.659,10.659,0,0,0,.854,4.383,6.891,6.891,0,0,0,2.419,3.017,6.012,6.012,0,0,0,3.558,1.053h.085a3.561,3.561,0,0,0,2.248-.626,2,2,0,0,0,.854-1.651,2.606,2.606,0,0,0-.6-1.651,1.911,1.911,0,0,0-1.452-.626h-1.138a1.9,1.9,0,0,1-1.651-1.082,5.2,5.2,0,0,1-.626-2.789V2.277a2.48,2.48,0,0,0-.626-1.651A2.427,2.427,0,0,0,521.977,0a2.278,2.278,0,0,0-1.651.626Z" transform="translate(-371.782 0)"/>
    <path id="path25_1_" class="cls-1" d="M593.536,39.521a1.933,1.933,0,0,0-1.423-1.793,3.074,3.074,0,0,0-1.082-.228,1.883,1.883,0,0,0-1.793,1.338L581.895,55.4l-8.339-16.622a2.136,2.136,0,0,0-1.907-1.281,2.882,2.882,0,0,0-.911.171,2.378,2.378,0,0,0-.968.768,1.714,1.714,0,0,0-.37,1.082,1.806,1.806,0,0,0,.228.968l10.275,19.5L575.349,70.26a2.663,2.663,0,0,0-.285,1.082,1.875,1.875,0,0,0,1.366,1.793,2.914,2.914,0,0,0,1.082.285A1.865,1.865,0,0,0,579.3,72L593.28,40.6a2.819,2.819,0,0,0,.256-1.082Z" transform="translate(-407.336 -26.827)"/>
  </g>
</svg>
